<svg width="13" height="12" viewBox="0 0 13 12" fill="none" xmlns="http://www.w3.org/2000/svg">
    <path d="M9.28027 0.599609C10.9198 0.599752 12.2 1.88002 12.2002 3.51953C12.2002 4.532 11.7504 5.49822 10.8359 6.61621C9.91456 7.74268 8.58488 8.94973 6.9248 10.4551H6.92383L6.39746 10.9336L5.87402 10.46C4.21467 8.95204 2.88605 7.74417 1.96484 6.61719C1.05023 5.49822 0.599609 4.53205 0.599609 3.51953C0.599853 1.88008 1.88008 0.599853 3.51953 0.599609C4.45146 0.599609 5.35592 1.03672 5.94336 1.72656L6.40039 2.2627L6.85645 1.72656C7.44389 1.03672 8.34835 0.599609 9.28027 0.599609Z"
          stroke="#161616" stroke-width="1.2"/>
</svg>
